<svg
  xmlns="http://www.w3.org/2000/svg"
  xmlns:dc="http://purl.org/dc/elements/1.1/"
  xmlns:cc="http://creativecommons.org/ns#"
  xmlns:rdf="http://www.w3.org/1999/02/22-rdf-syntax-ns#"
  width="260"
  height="95"
  version="1.1">

<title>RAWR logo</title>
<metadata>
 <rdf:RDF>
  <cc:Work>
   <dc:format>image/svg+xml</dc:format>
   <dc:type rdf:resource="http://purl.org/dc/dcmitype/StillImage" />
   <dc:title>RAWR logo</dc:title>
   <cc:license rdf:resource="http://creativecommons.org/licenses/by-nc-sa/3.0/" />
   <dc:creator>
    <cc:Agent>
     <dc:title>Raffaello D. Di Napoli</dc:title>
    </cc:Agent>
   </dc:creator>
  </cc:Work>
  <cc:License rdf:about="http://creativecommons.org/licenses/by-nc-sa/3.0/">
   <cc:permits rdf:resource="http://creativecommons.org/ns#Reproduction" />
   <cc:permits rdf:resource="http://creativecommons.org/ns#Distribution" />
   <cc:requires rdf:resource="http://creativecommons.org/ns#Notice" />
   <cc:requires rdf:resource="http://creativecommons.org/ns#Attribution" />
   <cc:prohibits rdf:resource="http://creativecommons.org/ns#CommercialUse" />
   <cc:permits rdf:resource="http://creativecommons.org/ns#DerivativeWorks" />
   <cc:requires rdf:resource="http://creativecommons.org/ns#ShareAlike" />
  </cc:License>
 </rdf:RDF>
</metadata>

<g style="fill:#b42464">
 <path d="m 21.2,18.3 0,24.1 c 2.8,0.2 5,0.4 6.5,0.4 6.4,0 11.2,-0.9 14.1,-2.7 3,-1.8 4.5,-5.4 4.5,-10.6 0,-4.3 -1.6,-7.3 -4.8,-9 -3.2,-1.7 -8.2,-2.6 -15.1,-2.6 -1.7,0 -3.4,0.1 -5.2,0.4 z M 54.2,91.8 31,55.9 c -2.3,0 -5.6,-0.2 -9.8,-0.4 l 0,36.3 -16,0 0,-86.9 C 6.1,4.9 9.4,4.8 15.2,4.5 21,4.5 25.7,4 29.3,4 c 22.1,0 33.1,8.5 33.1,25.6 0,5.1 -1.5,9.8 -4.6,14.1 -3,4.2 -6.9,7.2 -11.5,9 L 72,91.9 Z" />
 <path d="m 131.6,4.9 17,0 20.1,49.3 21.2,-49.3 16.6,0 -38.2,86.7 z" />
</g>
<g style="fill:#205289">
 <path d="M 92.8,40.7 82.4,66 l 20.9,0 z m 38.3,51.1 -17,0 -6.3,-13.9 -29.8,0 -6,13.9 -17.1,0 38,-87.1 z" />
 <path d="m 104.6,4.9 17,0 20.1,49.3 21.2,-49.3 16.6,0 -38.2,86.7 z" />
 <path d="m 206.1,18.3 0,24.1 c 2.8,0.2 5,0.4 6.5,0.4 6.4,0 11.2,-0.9 14.1,-2.7 3,-1.8 4.5,-5.4 4.5,-10.6 0,-4.3 -1.6,-7.3 -4.8,-9 -3.2,-1.7 -8.2,-2.6 -15.1,-2.6 -1.7,0 -3.4,0.1 -5.2,0.4 z M 239,91.8 215.8,55.9 c -2.3,0 -5.6,-0.2 -9.8,-0.4 l 0,36.3 -16,0 0,-86.9 c 0.9,0 4.2,-0.1 10,-0.4 5.8,-0.3 10.5,-0.5 14.1,-0.5 22.1,0 33.1,8.5 33.1,25.6 0,5.1 -1.5,9.8 -4.6,14.1 -3,4.2 -6.9,7.2 -11.5,9 l 25.7,39.2 z" />
</g>

</svg>
